<?xml version="1.0" encoding="utf-8"?>
<svg x="0pt" y="0pt" width="480pt" height="480pt" viewBox="0 0 480 480" xmlns="http://www.w3.org/2000/svg" xmlns:xlink="http://www.w3.org/1999/xlink">
  <!--Generated by AMDN-->
  <g id="Layer 1">
    <g id="g2423">
      <path id="path2449" style="fill:#000000;fill-opacity:1;fill-rule:nonzero;opacity:1;stroke:none;" d="M74.0827,436.548 C69.5471,434.074,69.0511,431.124,69.3861,408.605 C69.3861,408.605,69.6946,387.865,69.6946,387.865 C69.6946,387.865,72.5004,385.454,72.5004,385.454 C75.0372,383.273,76.2113,383.042,84.7504,383.042 C84.7504,383.042,94.1946,383.042,94.1946,383.042 C94.1946,383.042,94.1984,365.292,94.1984,365.292 C94.2017,349.46,94.4107,347.218,96.1331,344.542 C97.1951,342.892,106.628,332.542,117.095,321.542 C117.095,321.542,136.126,301.542,136.126,301.542 C136.126,301.542,136.152,230.542,136.152,230.542 C136.152,230.542,136.178,159.542,136.178,159.542 C136.178,159.542,112.642,141.644,112.642,141.644 C99.6975,131.8,88.6763,122.942,88.1505,121.96 C87.5947,120.921,87.1946,105.477,87.1946,85.0585 C87.1946,46.6458,87.3576,45.4602,92.9567,43.1409 C94.9997,42.2947,104.545,42.041,126.477,42.2501 C164.449,42.612,161.538,41.194,162.026,59.5674 C162.026,59.5674,162.358,72.0424,162.358,72.0424 C162.358,72.0424,179.276,72.0424,179.276,72.0424 C179.276,72.0424,196.195,72.0424,196.195,72.0424 C196.195,72.0424,196.195,61.5103,196.195,61.5103 C196.195,49.2823,197.527,44.9759,201.865,43.1789 C204.011,42.2902,214.612,42.0464,241.961,42.2566 C287.489,42.6066,283.532,40.9782,284.026,59.5674 C284.026,59.5674,284.358,72.0424,284.358,72.0424 C284.358,72.0424,301.276,72.0424,301.276,72.0424 C301.276,72.0424,318.195,72.0424,318.195,72.0424 C318.195,72.0424,318.195,60.9927,318.195,60.9927 C318.195,48.5803,319.332,45.0566,323.957,43.1409 C326,42.2947,335.545,42.041,357.477,42.2501 C387.865,42.5397,388.162,42.5629,390.418,44.8191 C392.693,47.0939,392.695,47.1275,392.981,83.6897 C393.217,113.93,393.021,120.653,391.851,122.413 C391.073,123.584,380.035,132.417,367.324,142.042 C367.324,142.042,344.212,159.542,344.212,159.542 C344.212,159.542,344.207,230.542,344.207,230.542 C344.207,230.542,344.201,301.542,344.201,301.542 C344.201,301.542,364.311,323.024,364.311,323.024 C375.371,334.838,384.819,345.555,385.307,346.839 C385.795,348.122,386.195,356.751,386.195,366.014 C386.195,366.014,386.195,382.855,386.195,382.855 C386.195,382.855,396.169,383.199,396.169,383.199 C411.292,383.72,410.695,382.595,410.695,410.542 C410.695,432.566,410.652,433.03,408.417,435.265 C408.417,435.265,406.139,437.542,406.139,437.542 C406.139,437.542,241.417,437.757,241.417,437.757 C100.479,437.941,76.3175,437.766,74.0827,436.548 C74.0827,436.548,74.0827,436.548,74.0827,436.548 z"/>
      <path id="path2394" style="fill:#ffffff;fill-opacity:1;fill-rule:nonzero;opacity:1;stroke:none;" d="M375.195,84.5424 C375.195,84.5424,375.195,60.0424,375.195,60.0424 C375.195,60.0424,355.776,60.0424,355.776,60.0424 C355.776,60.0424,336.358,60.0424,336.358,60.0424 C336.358,60.0424,336.026,72.5174,336.026,72.5174 C335.541,90.7856,338.05,89.4699,302.985,89.8379 C282.933,90.0483,274.004,89.7918,271.964,88.947 C267.332,87.0281,266.195,83.5093,266.195,71.092 C266.195,71.092,266.195,60.0424,266.195,60.0424 C266.195,60.0424,240.195,60.0424,240.195,60.0424 C240.195,60.0424,214.195,60.0424,214.195,60.0424 C214.195,60.0424,214.195,71.9866,214.195,71.9866 C214.195,83.1689,214.041,84.1098,211.783,86.7366 C211.783,86.7366,209.37,89.5424,209.37,89.5424 C209.37,89.5424,181.099,89.8379,181.099,89.8379 C160.959,90.0483,152.005,89.7921,149.964,88.947 C145.332,87.0281,144.195,83.5093,144.195,71.092 C144.195,71.092,144.195,60.0424,144.195,60.0424 C144.195,60.0424,124.695,60.0424,124.695,60.0424 C124.695,60.0424,105.195,60.0424,105.195,60.0424 C105.195,60.0424,105.195,84.5424,105.195,84.5424 C105.195,84.5424,105.195,109.042,105.195,109.042 C105.195,109.042,240.195,109.042,240.195,109.042 C240.195,109.042,375.195,109.042,375.195,109.042 C375.195,109.042,375.195,84.5424,375.195,84.5424 z"/>
      <path id="path2427" style="fill:#ffffff;fill-opacity:1;fill-rule:nonzero;opacity:1;stroke:none;" d="M345.469,136.792 C345.469,136.792,357.606,127.542,357.606,127.542 C357.606,127.542,298.9,127.284,298.9,127.284 C266.612,127.142,213.804,127.142,181.55,127.284 C181.55,127.284,122.905,127.542,122.905,127.542 C122.905,127.542,134.8,136.741,134.8,136.741 C134.8,136.741,146.695,145.941,146.695,145.941 C146.695,145.941,240.013,145.991,240.013,145.991 C240.013,145.991,333.332,146.042,333.332,146.042 C333.332,146.042,345.469,136.792,345.469,136.792 z"/>
      <path id="path2429" style="fill:#ffffff;fill-opacity:1;fill-rule:nonzero;opacity:1;stroke:none;" d="M326.195,230.042 C326.195,230.042,326.195,164.042,326.195,164.042 C326.195,164.042,240.195,164.042,240.195,164.042 C240.195,164.042,154.195,164.042,154.195,164.042 C154.195,164.042,154.195,230.042,154.195,230.042 C154.195,230.042,154.195,296.042,154.195,296.042 C154.195,296.042,240.195,296.042,240.195,296.042 C240.195,296.042,326.195,296.042,326.195,296.042 C326.195,296.042,326.195,230.042,326.195,230.042 z"/>
      <path id="path2431" style="fill:#ffffff;fill-opacity:1;fill-rule:nonzero;opacity:1;stroke:none;" d="M354.517,338.73 C353.515,337.458,347.97,331.383,342.195,325.23 C342.195,325.23,331.695,314.043,331.695,314.043 C331.695,314.043,240.117,314.043,240.117,314.043 C240.117,314.043,148.54,314.042,148.54,314.042 C148.54,314.042,135.786,327.542,135.786,327.542 C135.786,327.542,123.033,341.042,123.033,341.042 C123.033,341.042,239.686,341.042,239.686,341.042 C239.686,341.042,356.34,341.042,356.34,341.042 C356.34,341.042,354.517,338.73,354.517,338.73 z"/>
      <path id="path2433" style="fill:#ffffff;fill-opacity:1;fill-rule:nonzero;opacity:1;stroke:none;" d="M368.195,371.042 C368.195,371.042,368.195,359.042,368.195,359.042 C368.195,359.042,240.195,359.042,240.195,359.042 C240.195,359.042,112.195,359.042,112.195,359.042 C112.195,359.042,112.195,371.042,112.195,371.042 C112.195,371.042,112.195,383.042,112.195,383.042 C112.195,383.042,240.195,383.042,240.195,383.042 C240.195,383.042,368.195,383.042,368.195,383.042 C368.195,383.042,368.195,371.042,368.195,371.042 z"/>
      <path id="path2435" style="fill:#ffffff;fill-opacity:1;fill-rule:nonzero;opacity:1;stroke:none;" d="M393.195,410.542 C393.195,410.542,393.195,401.042,393.195,401.042 C393.195,401.042,240.195,401.042,240.195,401.042 C240.195,401.042,87.1946,401.042,87.1946,401.042 C87.1946,401.042,87.1946,410.542,87.1946,410.542 C87.1946,410.542,87.1946,420.042,87.1946,420.042 C87.1946,420.042,240.195,420.042,240.195,420.042 C240.195,420.042,393.195,420.042,393.195,420.042 C393.195,420.042,393.195,410.542,393.195,410.542 z"/>
    </g>
  </g>
</svg>
